<svg xmlns="http://www.w3.org/2000/svg" viewBox="0 0 2238.43 2417.47"><defs><style>.cls-1{fill:#c2000b;}.cls-2{fill:#ff0;}.cls-3{fill:#ff8000;}.cls-4{fill:#fe330a;}</style></defs><title>ignisio-logo</title><g id="LOGO"><path d="M0,1799.25a18.53,18.53,0,0,1,6.11-14.06A20.94,20.94,0,0,1,21,1779.44,20.89,20.89,0,0,1,36,1785.19,18.62,18.62,0,0,1,42,1799.25V2168a18.58,18.58,0,0,1-6.06,14A21,21,0,0,1,21,2187.82a21,21,0,0,1-14.93-5.75A18.49,18.49,0,0,1,0,2168Z"/><path d="M437.68,2040.83a20.8,20.8,0,0,1-14.92-5.78,19.14,19.14,0,0,1,0-28.09,20.9,20.9,0,0,1,14.92-5.76H560.49c6.29,0,11.28,2,14.93,6.1a20.9,20.9,0,0,1,5.42,14.32,11.06,11.06,0,0,1-.34,2.6,8.61,8.61,0,0,0-.38,2.51A190.2,190.2,0,0,1,553.34,2091a203,203,0,0,1-47.47,51.13,228.31,228.31,0,0,1-137.41,45.69q-44.76,0-84.15-16t-68.52-43.45a205.34,205.34,0,0,1-46.16-64.57c-11.33-24.66-16.91-51.1-16.91-79.23s5.57-54.54,16.91-79.23a210.07,210.07,0,0,1,46.16-64.89q29.09-27.83,68.52-43.78t84.15-16q54.28,0,100.06,23t75,61.34c3.21,4.75,4.8,9.17,4.8,13.46s-1.81,8.41-5.45,12.42-8.61,6.11-15,6.11a28.21,28.21,0,0,1-9.81-1.93,22.26,22.26,0,0,1-9.17-7c-21.72-23.93-44.51-41.12-68.47-51.78s-48-15.95-72-15.95a179.85,179.85,0,0,0-67.86,12.76,171.38,171.38,0,0,0-55.31,35.14,166.89,166.89,0,0,0-37,52.4,157.26,157.26,0,0,0,0,127.8,162.85,162.85,0,0,0,37,52.1q23.42,22,55.31,34.84a180.59,180.59,0,0,0,67.86,12.77,178.3,178.3,0,0,0,53.9-8,182,182,0,0,0,46.82-22.11,158.53,158.53,0,0,0,37.3-33.83,165.28,165.28,0,0,0,25.45-43.44Z"/><path d="M682.62,1799.25a18.62,18.62,0,0,1,6.09-14.06,21,21,0,0,1,15-5.75c5,0,8.66,1,11.15,2.91a45.36,45.36,0,0,1,7.83,7.95l233.42,311.25v-302.3a18.62,18.62,0,0,1,6.11-14.06,22.26,22.26,0,0,1,29.86,0,18.5,18.5,0,0,1,6.07,14.06V2168a18.45,18.45,0,0,1-6.07,14,21,21,0,0,1-14.94,5.75c-5,0-9.11-1.35-12.25-4.16a45,45,0,0,1-8.12-9.27L724.67,1865.06v303a18.56,18.56,0,0,1-6.09,14,22.29,22.29,0,0,1-29.88,0,18.57,18.57,0,0,1-6.09-14Z"/><path d="M1114.85,1799.25a18.73,18.73,0,0,1,6.07-14.06,22.3,22.3,0,0,1,29.89,0,18.61,18.61,0,0,1,6.1,14.06V2168a18.56,18.56,0,0,1-6.1,14,22.3,22.3,0,0,1-29.89,0,18.69,18.69,0,0,1-6.07-14Z"/><path d="M1406.58,1982.66q-20.39-5.7-43-14.34a219.36,219.36,0,0,1-41.43-20.79,119.21,119.21,0,0,1-30.88-28.45,60.83,60.83,0,0,1-12.22-37.36q0-24.33,11.56-43.17a108.7,108.7,0,0,1,29.83-31.93,137,137,0,0,1,41.06-19.88,162,162,0,0,1,45.12-6.66,214.39,214.39,0,0,1,30.88,2.28,152.2,152.2,0,0,1,31.59,7.95,133.12,133.12,0,0,1,30.15,16,122.4,122.4,0,0,1,26.79,26.21,22.43,22.43,0,0,1,4.09,13.4,20.86,20.86,0,0,1-5.8,15.05c-3.82,4-8.89,6.09-15.25,6.09q-12.19,0-19-10.22a67.62,67.62,0,0,0-19-20.14,94.51,94.51,0,0,0-22.07-11.18,93.34,93.34,0,0,0-22.38-4.8c-7.45-.66-14.12-.93-20-.93a136.44,136.44,0,0,0-28.5,3.15,98.78,98.78,0,0,0-27.49,10.26,60.86,60.86,0,0,0-20.7,18.83c-5.41,7.9-8.08,17.83-8.08,29.74,0,8.55,3.9,16.22,11.84,23a120,120,0,0,0,28.8,17.94A323.26,323.26,0,0,0,1397.8,1936c12.18,3.86,22.59,7.3,31.19,10.25a431.52,431.52,0,0,1,46.81,19.22,147.12,147.12,0,0,1,36.3,24.26,101.18,101.18,0,0,1,23.73,32.58c5.67,12.42,8.47,27.06,8.47,44.09a102.78,102.78,0,0,1-11.52,47.94,124.7,124.7,0,0,1-30.83,38.68,151.23,151.23,0,0,1-96.73,34.81,175.55,175.55,0,0,1-39.73-4.8,199,199,0,0,1-39.31-13.4,169,169,0,0,1-34-20.78Q1277,2136.7,1268.81,2122a18.65,18.65,0,0,1-3.36-10.22c0-5.14,2.18-9.8,6.43-14.05a21.82,21.82,0,0,1,16-6.42c8.58,0,15,3.41,19,10.25a59.66,59.66,0,0,0,18,20.13,132.73,132.73,0,0,0,26.11,14.72,150,150,0,0,0,28.83,9,139.29,139.29,0,0,0,26.12,2.82,104,104,0,0,0,36-6.4,102.47,102.47,0,0,0,30.91-17.26,86.06,86.06,0,0,0,21.35-25.85,66.77,66.77,0,0,0,8.14-32.3q0-17.22-7.11-30a70.62,70.62,0,0,0-20.07-22.37,156.27,156.27,0,0,0-30.48-17.27A383.25,383.25,0,0,0,1406.58,1982.66Z"/><path d="M1652.87,1799.25a18.64,18.64,0,0,1,6.09-14.06,22.3,22.3,0,0,1,29.89,0,18.67,18.67,0,0,1,6.09,14.06V2168a18.63,18.63,0,0,1-6.09,14,22.3,22.3,0,0,1-29.89,0,18.6,18.6,0,0,1-6.09-14Z"/><path d="M2022,1780.73a222.31,222.31,0,0,1,84.15,16,219.37,219.37,0,0,1,68.86,43.78,206.06,206.06,0,0,1,46.5,64.89,193.88,193.88,0,0,1,0,158.46,201.51,201.51,0,0,1-46.5,64.57,221.53,221.53,0,0,1-68.86,43.45q-39.39,16-84.15,16t-84.14-16q-39.32-15.93-68.51-43.45a204.16,204.16,0,0,1-46.13-64.57,193.59,193.59,0,0,1,0-158.46,208.84,208.84,0,0,1,46.13-64.89q29.16-27.83,68.51-43.78A222.36,222.36,0,0,1,2022,1780.73Zm0,39.65a180.26,180.26,0,0,0-67.86,12.76,171.3,171.3,0,0,0-55.28,35.14,167.85,167.85,0,0,0-37,52.4,157.06,157.06,0,0,0,0,127.8,163.77,163.77,0,0,0,37,52.1,175,175,0,0,0,55.28,34.84,183.23,183.23,0,0,0,191.37-34.84,161.73,161.73,0,0,0,37.36-52.1,158,158,0,0,0,0-127.8,165.71,165.71,0,0,0-37.36-52.4,175.77,175.77,0,0,0-55.62-35.14A180.29,180.29,0,0,0,2022,1820.38Z"/><path d="M726.42,2343.65c-5.34-1.4-11-3.13-17-5.19a82.47,82.47,0,0,1-16.26-7.49,46.44,46.44,0,0,1-12.28-10.16,21.17,21.17,0,0,1-4.75-13.48,27.33,27.33,0,0,1,4.48-15.5,40.53,40.53,0,0,1,11.8-11.47,55.32,55.32,0,0,1,16.22-7.23,68.23,68.23,0,0,1,17.81-2.35,116.76,116.76,0,0,1,12.22.74,65.16,65.16,0,0,1,12.43,2.9,60.7,60.7,0,0,1,12,5.73,49,49,0,0,1,10.51,9.48,7.66,7.66,0,0,1,1.62,4.79,7.22,7.22,0,0,1-2.29,5.42,8.19,8.19,0,0,1-6,2.27,8.78,8.78,0,0,1-7.57-3.72,22.87,22.87,0,0,0-7.48-7.3,39.54,39.54,0,0,0-8.67-4,34.53,34.53,0,0,0-8.87-1.73c-2.89-.23-5.56-.4-7.87-.4a61.42,61.42,0,0,0-11.3,1.14,42.64,42.64,0,0,0-10.79,3.73,22.53,22.53,0,0,0-8.11,6.75,17.16,17.16,0,0,0-3.28,10.73q0,4.57,4.69,8.23a48.94,48.94,0,0,0,11.35,6.51,129.7,129.7,0,0,0,14,4.79c4.82,1.41,8.9,2.59,12.33,3.68a176.26,176.26,0,0,1,18.4,6.94,60.08,60.08,0,0,1,14.42,8.75,35.83,35.83,0,0,1,9.32,11.72,36.69,36.69,0,0,1-1.22,33.08,44,44,0,0,1-12.2,14,61.5,61.5,0,0,1-17.48,9.19,64.37,64.37,0,0,1-20.63,3.3,82.6,82.6,0,0,1-15.69-1.66,91.81,91.81,0,0,1-15.49-4.86,71.07,71.07,0,0,1-13.44-7.42,36.25,36.25,0,0,1-9.25-9.72,6.83,6.83,0,0,1-1.29-3.7c0-1.81.88-3.43,2.54-5.11a9.7,9.7,0,0,1,6.31-2.27c3.41,0,5.85,1.21,7.48,3.7a22.14,22.14,0,0,0,7.1,7.23,58.77,58.77,0,0,0,10.27,5.34,65.45,65.45,0,0,0,11.37,3.22,62.79,62.79,0,0,0,10.35,1,46.41,46.41,0,0,0,14.18-2.27,43.66,43.66,0,0,0,12.2-6.31,30.49,30.49,0,0,0,8.35-9.24,22.25,22.25,0,0,0,3.3-11.69,20.13,20.13,0,0,0-2.82-10.73,24.87,24.87,0,0,0-7.91-8.05,59.4,59.4,0,0,0-12-6.19A156,156,0,0,0,726.42,2343.65Z"/><path d="M791.25,2284.75a8.66,8.66,0,0,1-5.95-2,6.63,6.63,0,0,1,0-10.12,9,9,0,0,1,5.95-2h92.87a8.53,8.53,0,0,1,5.83,2,6.41,6.41,0,0,1,0,10.12,8.25,8.25,0,0,1-5.83,2h-38v125.58a6.72,6.72,0,0,1-2.33,5.09,9.3,9.3,0,0,1-6,2,8.55,8.55,0,0,1-5.86-2,6.57,6.57,0,0,1-2.44-5.09V2284.75Z"/><path d="M911.41,2277.89a7.2,7.2,0,0,1,2.4-5,8.13,8.13,0,0,1,6.1-2.36,7.74,7.74,0,0,1,6,2.29,7.41,7.41,0,0,1,2.08,5.26v88.31a31.73,31.73,0,0,0,3.4,14.29,38.51,38.51,0,0,0,9.07,11.63,44.5,44.5,0,0,0,13.69,7.87,46.2,46.2,0,0,0,16.74,3.07,47.44,47.44,0,0,0,30.16-10.94,37.69,37.69,0,0,0,9.44-11.63,30.93,30.93,0,0,0,3.49-14.29v-88.52a7.12,7.12,0,0,1,2.46-5,8,8,0,0,1,6.08-2.36,7.61,7.61,0,0,1,5.91,2.44,8.06,8.06,0,0,1,2.12,5.11v88.31a42.34,42.34,0,0,1-4.8,19.91,53.08,53.08,0,0,1-12.91,16.23,58.12,58.12,0,0,1-18.76,10.89,68.54,68.54,0,0,1-46.37,0,60.14,60.14,0,0,1-18.93-10.89,52.91,52.91,0,0,1-12.64-16.23,43.1,43.1,0,0,1-4.71-19.91Z"/><path d="M1053.83,2277.64a6.39,6.39,0,0,1,2.46-5,8.6,8.6,0,0,1,5.85-2h46.07a95.71,95.71,0,0,1,33.21,5.7,86.78,86.78,0,0,1,27.13,15.79,74.21,74.21,0,0,1,18.36,23.32,64.13,64.13,0,0,1,0,57.14,75.47,75.47,0,0,1-18.36,23.56,90.36,90.36,0,0,1-27.13,15.71,95.77,95.77,0,0,1-33.21,5.7h-46.07a8.63,8.63,0,0,1-5.85-2,6.47,6.47,0,0,1-2.46-5.09Zm16.63,7.11v118.51h37.75a77.88,77.88,0,0,0,26.75-4.7,72.88,72.88,0,0,0,22-12.79,59.56,59.56,0,0,0,14.74-18.9,52.18,52.18,0,0,0,0-46,58.27,58.27,0,0,0-14.74-18.78,68.58,68.58,0,0,0-22-12.73,77.84,77.84,0,0,0-26.75-4.62Z"/><path d="M1209.71,2277.64a6.25,6.25,0,0,1,2.4-5,8.64,8.64,0,0,1,5.9-2,8.81,8.81,0,0,1,5.87,2,6.27,6.27,0,0,1,2.41,5v132.69a6.35,6.35,0,0,1-2.41,5.09,8.84,8.84,0,0,1-5.87,2,8.66,8.66,0,0,1-5.9-2,6.32,6.32,0,0,1-2.4-5.09Z"/><path d="M1329.06,2271a96.48,96.48,0,0,1,33.27,5.72,88.53,88.53,0,0,1,27.13,15.75,75,75,0,0,1,18.3,23.34,63.54,63.54,0,0,1,0,57.06,73.1,73.1,0,0,1-18.3,23.22,89,89,0,0,1-27.13,15.7,96.19,96.19,0,0,1-33.27,5.7,94.6,94.6,0,0,1-33.12-5.7,86,86,0,0,1-27.05-15.7,72.68,72.68,0,0,1-18.17-23.22,63.84,63.84,0,0,1,0-57.06,74.52,74.52,0,0,1,18.17-23.34,85.56,85.56,0,0,1,27.05-15.75A94.88,94.88,0,0,1,1329.06,2271Zm0,14.3a76.41,76.41,0,0,0-26.71,4.55,68.51,68.51,0,0,0-21.81,12.7,59.21,59.21,0,0,0-14.6,18.82,51.59,51.59,0,0,0,0,46,59.66,59.66,0,0,0,14.6,18.72,70.18,70.18,0,0,0,21.81,12.51,77,77,0,0,0,26.71,4.65,78.2,78.2,0,0,0,26.82-4.65,71.81,71.81,0,0,0,21.95-12.51,60.82,60.82,0,0,0,14.76-18.72,52.28,52.28,0,0,0,0-46,60.34,60.34,0,0,0-14.76-18.82,70.07,70.07,0,0,0-21.95-12.7A77.63,77.63,0,0,0,1329.06,2285.29Z"/><path d="M1490,2343.65q-8-2.1-17-5.19a85.93,85.93,0,0,1-16.28-7.49,45.31,45.31,0,0,1-12.2-10.16,20.79,20.79,0,0,1-4.79-13.48,27.23,27.23,0,0,1,4.54-15.5,40.26,40.26,0,0,1,11.74-11.47,54.21,54.21,0,0,1,16.23-7.23,68,68,0,0,1,17.77-2.35,114.44,114.44,0,0,1,12.22.74,63,63,0,0,1,12.45,2.9,57.7,57.7,0,0,1,11.92,5.73,47.94,47.94,0,0,1,10.58,9.48,8.13,8.13,0,0,1,1.57,4.79,7.12,7.12,0,0,1-2.23,5.42,8.38,8.38,0,0,1-6.09,2.27,8.65,8.65,0,0,1-7.45-3.72,23.12,23.12,0,0,0-7.55-7.3,37.31,37.31,0,0,0-8.71-4,33.61,33.61,0,0,0-8.76-1.73c-3-.23-5.6-.4-7.95-.4a60.81,60.81,0,0,0-11.21,1.14,42,42,0,0,0-10.83,3.73,22.63,22.63,0,0,0-8.14,6.75,17.17,17.17,0,0,0-3.3,10.73c0,3,1.6,5.8,4.77,8.23a46.5,46.5,0,0,0,11.35,6.51,126.1,126.1,0,0,0,13.92,4.79c4.82,1.41,8.86,2.59,12.35,3.68a178.92,178.92,0,0,1,18.42,6.94,60.76,60.76,0,0,1,14.39,8.75,36.69,36.69,0,0,1,9.34,11.72c2.23,4.43,3.28,9.67,3.28,15.81a34.4,34.4,0,0,1-4.52,17.27,46.52,46.52,0,0,1-12.16,14,62,62,0,0,1-17.58,9.19,63.49,63.49,0,0,1-20.58,3.3,81.77,81.77,0,0,1-15.65-1.66,93.71,93.71,0,0,1-15.56-4.86,72.4,72.4,0,0,1-13.38-7.42,34.7,34.7,0,0,1-9.24-9.72,6.25,6.25,0,0,1-1.32-3.7c0-1.81.86-3.43,2.52-5.11a9.55,9.55,0,0,1,6.36-2.27c3.34,0,5.8,1.21,7.44,3.7a22.64,22.64,0,0,0,7.1,7.23,55.68,55.68,0,0,0,10.37,5.34,62.59,62.59,0,0,0,21.58,4.27A47.43,47.43,0,0,0,1504,2401a43,43,0,0,0,12.09-6.31,30.21,30.21,0,0,0,8.47-9.24,22.6,22.6,0,0,0,3.28-11.69A20.12,20.12,0,0,0,1525,2363a25.65,25.65,0,0,0-7.9-8.05,59.36,59.36,0,0,0-12.07-6.19A153.54,153.54,0,0,0,1490,2343.65Z"/><path class="cls-1" d="M1091.32,504c25.91,38,50.88,74.71,75.81,111.33q123.58,181.22,247.06,362.42c13,19.12,26.53,37.9,38.6,57.54,2.54,4,2.54,12-.16,15.83q-132.92,196.55-266.87,392.48c-31,45.46-62,91.06-93.88,137.78-3.22-4-6-7-8.32-10.47q-177-259.38-353.9-518.86c-3.55-5.24-5.64-9.63-1.19-16.27C849.18,859.28,969.54,682.6,1091.32,504"/><path class="cls-2" d="M1299.73,307.38C1354,387,1406.58,464,1459.08,541q124.18,182.25,248.57,364.38c5.86,8.67,7.86,15,1.11,24.92q-200.92,293.48-400.93,587.47c-2.21,3.39-4.79,6.48-8.53,11.43-13.43-19.68-24.39-39.52-39.22-56.32-19-21.37-17-37.59-.62-60.89,83.57-119.3,164.6-240.2,247-360.4,4.66-6.92,4-11-.3-17.42q-171.45-250.92-342.76-502c-6.6-9.61-6.73-16-.1-25.64,42.92-61.71,84.87-123.9,127.28-186,2.65-4,5.43-7.92,9.18-13.23"/><path class="cls-3" d="M881.18,307.38C826.82,387,774.25,464,721.82,541Q597.66,723.26,473.3,905.39c-5.92,8.67-7.93,15-1.1,24.92Q673,1223.79,873,1517.78c2.22,3.39,4.81,6.48,8.54,11.43,13.43-19.68,24.43-39.52,39.25-56.32,18.84-21.37,16.94-37.59.62-60.89-83.6-119.3-164.67-240.2-247-360.4-4.73-6.92-4-11,.34-17.42q171.44-250.92,342.72-502c6.59-9.61,6.76-16,.07-25.64-42.9-61.71-85-123.9-127.23-186-2.7-4-5.45-7.92-9.18-13.23"/><path class="cls-4" d="M1133,475.29c-13.84-20.12-27-39.25-41.66-60.63-15,21.65-28.82,41.66-43.47,62.77-2.81-3.57-5.2-6.25-7.22-9.32q-64.44-94.35-128.82-188.87c-3.76-5.5-6.76-9.68-1.8-16.89Q997.82,134.29,1084.93,5.9a75.7,75.7,0,0,1,4.9-5.9c12.79,18.79,24.92,36.55,37,54.31,46.62,68.37,92.95,136.8,140,204.85,5.63,8.2,5.16,13.4-.23,21.26-42.1,60.91-83.63,122.22-125.31,183.39-2.41,3.43-5,6.83-8.22,11.47"/></g></svg>