<svg xmlns="http://www.w3.org/2000/svg" viewBox="0 0 1245.11 1581.35"><defs><style>.cls-1{fill:#c2000b;}.cls-2{fill:#ff0;}.cls-3{fill:#ff8000;}.cls-4{fill:#fe330a;}</style></defs><title>ignisio-logo-shape</title><g id="LOGO"><path class="cls-1" d="M623.43,504c25.91,38,50.88,74.71,75.81,111.33Q822.82,796.52,946.3,977.73c13,19.12,26.53,37.9,38.6,57.54,2.54,4,2.54,12-.16,15.83q-132.92,196.55-266.87,392.48c-31,45.46-62,91.06-93.88,137.78-3.22-4-6-7-8.32-10.47q-177-259.38-353.9-518.86c-3.55-5.24-5.64-9.63-1.19-16.27C381.29,859.28,501.64,682.6,623.43,504"/><path class="cls-2" d="M831.83,307.38C886.13,387,938.69,464,991.18,541q124.18,182.25,248.57,364.38c5.86,8.67,7.86,15,1.11,24.92q-200.92,293.48-400.93,587.47c-2.21,3.39-4.79,6.48-8.53,11.43-13.43-19.68-24.39-39.52-39.22-56.32-19-21.37-17-37.59-.62-60.89,83.57-119.3,164.6-240.2,247-360.4,4.66-6.92,4-11-.3-17.42q-171.45-250.92-342.76-502c-6.6-9.61-6.73-16-.1-25.64,42.92-61.71,84.87-123.9,127.28-186,2.65-4,5.43-7.92,9.18-13.23"/><path class="cls-3" d="M413.29,307.38C358.92,387,306.36,464,253.93,541Q129.76,723.26,5.4,905.39c-5.92,8.67-7.93,15-1.1,24.92q200.79,293.48,400.84,587.47c2.22,3.39,4.81,6.48,8.54,11.43,13.43-19.68,24.43-39.52,39.25-56.32,18.84-21.37,16.94-37.59.62-60.89-83.6-119.3-164.67-240.2-247-360.4-4.73-6.92-4-11,.34-17.42q171.44-250.92,342.72-502c6.59-9.61,6.76-16,.07-25.64-42.9-61.71-85-123.9-127.23-186-2.7-4-5.45-7.92-9.18-13.23"/><path class="cls-4" d="M665.08,475.29c-13.84-20.12-27-39.25-41.66-60.63-15,21.65-28.82,41.66-43.47,62.77-2.81-3.57-5.2-6.25-7.22-9.32Q508.3,373.76,443.91,279.24c-3.76-5.5-6.76-9.68-1.8-16.89Q529.92,134.29,617,5.9a75.7,75.7,0,0,1,4.9-5.9c12.79,18.79,24.92,36.55,37,54.31,46.62,68.37,92.95,136.8,140,204.85,5.63,8.2,5.16,13.4-.23,21.26C756.52,341.34,715,402.64,673.31,463.81c-2.41,3.43-5,6.83-8.22,11.47"/></g></svg>