<svg xmlns="http://www.w3.org/2000/svg" viewBox="0 0 97.31 123.59"><defs><style>.cls-1{fill:#fefefe;}</style></defs><title>logo-white</title><g id="LOGO"><path class="cls-1" d="M48.73,39.39l5.92,8.7L74,76.42c1,1.49,2.07,3,3,4.5a1.32,1.32,0,0,1,0,1.24Q66.57,97.51,56.11,112.82l-7.34,10.77c-.25-.31-.47-.55-.65-.82L20.46,82.22A1,1,0,0,1,20.37,81c9.43-13.79,18.84-27.6,28.36-41.56"/><path class="cls-1" d="M65,24,77.47,42.28q9.71,14.24,19.43,28.48A1.47,1.47,0,0,1,97,72.71q-15.7,22.94-31.33,45.91c-.17.26-.37.51-.67.89a44,44,0,0,0-3.07-4.4c-1.48-1.67-1.33-2.94,0-4.76C68.4,101,74.73,91.58,81.17,82.19a1,1,0,0,0,0-1.36Q67.74,61.22,54.36,41.6a1.49,1.49,0,0,1,0-2C57.7,34.77,61,29.91,64.3,25.06c.21-.31.42-.62.72-1"/><path class="cls-1" d="M32.3,24c-4.25,6.23-8.36,12.24-12.46,18.26Q10.14,56.53.42,70.76a1.45,1.45,0,0,0-.09,1.95Q16,95.65,31.66,118.62c.17.26.38.51.67.89a44.18,44.18,0,0,1,3.07-4.4c1.47-1.67,1.32-2.94,0-4.76C28.91,101,22.58,91.58,16.14,82.19a1,1,0,0,1,0-1.36Q29.57,61.22,43,41.6a1.49,1.49,0,0,0,0-2c-3.35-4.82-6.64-9.68-9.94-14.53l-.72-1"/><path class="cls-1" d="M52,37.15l-3.26-4.74-3.4,4.91c-.22-.28-.41-.49-.56-.73L34.69,21.82c-.29-.43-.53-.76-.14-1.32q6.86-10,13.67-20A5.91,5.91,0,0,1,48.61,0L51.5,4.24c3.64,5.34,7.26,10.69,10.94,16a1.23,1.23,0,0,1,0,1.66c-3.29,4.76-6.54,9.55-9.79,14.33l-.64.9"/></g></svg>